HIERARCHY
ROOT Hips
{
  OFFSET 0 0 0
  CHANNELS 6 Xposition Yposition Zposition Zrotation Yrotation Xrotation
  JOINT LeftThigh
  {
    OFFSET 8.409438 0 -5.917753
    CHANNELS 3 Zrotation Yrotation Xrotation
    JOINT LeftLeg
    {
      OFFSET 0 0 -42.358652
      CHANNELS 3 Zrotation Yrotation Xrotation
      JOINT LeftFoot
      {
        OFFSET 0 0 -39.357303
        CHANNELS 3 Zrotation Yrotation Xrotation
      }
    }
  }
  JOINT RightThigh
  {
    OFFSET -8.409438 0 -5.917753
    CHANNELS 3 Zrotation Yrotation Xrotation
    JOINT RightLeg
    {
      OFFSET 0 0 -42.358652
      CHANNELS 3 Zrotation Yrotation Xrotation
      JOINT RightFoot
      {
        OFFSET 0 0 -39.357303
        CHANNELS 3 Zrotation Yrotation Xrotation
      }
    }
  }
  JOINT SpineLow
  {
    OFFSET 0 0 4.719101
    CHANNELS 3 Zrotation Yrotation Xrotation
    JOINT SpineMid
    {
      OFFSET 0 0 12.899191
      CHANNELS 3 Zrotation Yrotation Xrotation
      JOINT Chest
      {
        OFFSET 0 0 12.899191
        CHANNELS 3 Zrotation Yrotation Xrotation
        JOINT LeftShoulder
        {
          OFFSET 7.550562 1.41573 9.438202
          CHANNELS 3 Zrotation Yrotation Xrotation
          JOINT LeftArm
          {
            OFFSET 9.155056 0 4.247191
            CHANNELS 3 Zrotation Yrotation Xrotation
            JOINT LeftForearm
            {
              OFFSET 0 0 25.771955
              CHANNELS 3 Zrotation Yrotation Xrotation
              JOINT LeftHand
              {
                OFFSET 0 0 25.197169
                CHANNELS 3 Zrotation Yrotation Xrotation
              }
            }
          }
        }
        JOINT RightShoulder
        {
          OFFSET -7.550562 1.41573 9.438202
          CHANNELS 3 Zrotation Yrotation Xrotation
          JOINT RightArm
          {
            OFFSET -9.155056 0 4.247191
            CHANNELS 3 Zrotation Yrotation Xrotation
            JOINT RightForearm
            {
              OFFSET 0 0 -25.771955
              CHANNELS 3 Zrotation Yrotation Xrotation
              JOINT RightHand
              {
                OFFSET 0 0 -25.197169
                CHANNELS 3 Zrotation Yrotation Xrotation
              }
            }
          }
        }
        JOINT Neck
        {
          OFFSET 0 0 15.101124
          CHANNELS 3 Zrotation Yrotation Xrotation
          JOINT Head
          {
            OFFSET 0 0 11.325843
            CHANNELS 3 Zrotation Yrotation Xrotation
            End Site
            {
              OFFSET 0 0 14.157303
            }
          }
        }
      }
    }
  }
}
MOTION
Frames: 10
Frame Time: 0.0
0.0  93.25843  0.0  -1.625283  -2.949828  -93.919041  12.401763  -15.993823  5.134271  -4.341494  -1.370223  6.533445  7.784351  1.997247  2.898593  -10.700372  3.952879  -3.99836  -3.749483  8.625057  10.80799  4.472959  1.869607  0.021732  2.134311  0.521546  -0.722961  5.818636  1.487946  -1.928666  5.818636  1.487946  -1.928666  -33.348921  18.915062  20.817422  -150.70128  29.497682  -93.268828  -25.418064  29.821248  86.204315  53.665921  -6.947809  12.733334  -3.341159  -23.466093  26.228013  116.75601  61.28897  49.532149  -26.55008  -26.284645  -107.568008  57.710331  -3.642066  -12.137034  -7.518418  -2.224911  8.433617  -5.608661  -1.773152  6.298173  
0.0  93.25843  0.0  -1.785104  -2.560117  -93.850552  12.177302  -16.239737  4.813446  -4.488692  -1.315025  6.570095  8.150063  2.114198  3.014872  -10.964615  3.769196  -4.008232  -4.245566  8.750811  10.710607  4.807315  1.955206  0.097153  2.057677  0.467107  -0.71074  5.610868  1.336045  -1.901632  5.610868  1.336045  -1.901632  -33.159147  19.11196  20.674154  -150.706855  29.183384  -93.483391  -25.120617  29.792301  86.696764  52.921593  -6.922221  11.793263  -3.659105  -23.060053  26.102784  116.018455  61.048028  48.671171  -25.808598  -26.333953  -107.815614  57.790748  -3.873329  -11.771619  -7.515602  -2.090364  8.276829  -5.608981  -1.67022  6.182333  
0.0  93.25843  0.0  -1.939882  -2.025764  -93.796172  12.042183  -16.461848  4.522103  -4.612397  -1.247295  6.783823  8.305795  2.218061  2.995478  -11.084367  3.600662  -3.920608  -4.522537  8.819844  10.796134  4.704584  2.02803  0.073823  1.950899  0.414575  -0.706445  5.320481  1.189205  -1.896312  5.320481  1.189205  -1.896312  -32.876929  19.362214  20.583564  -150.743113  28.854345  -93.677071  -24.777439  29.766596  87.119635  52.410874  -6.873483  11.006087  -3.771383  -22.673845  26.129974  115.452018  60.843752  48.10662  -25.165384  -26.536602  -108.063224  57.773514  -4.044834  -11.58706  -7.450038  -1.951284  8.176235  -5.562061  -1.563743  6.108872  
0.0  93.25843  0.0  -2.171996  -1.377429  -93.727516  11.40503  -16.77675  3.888905  -4.816652  -1.095005  7.15755  8.712003  2.334959  3.23393  -11.488413  3.360704  -3.931869  -5.230774  8.971358  10.799991  4.875853  2.15517  0.082597  1.831598  0.353258  -0.704939  4.996067  1.018233  -1.899003  4.996067  1.018233  -1.899003  -32.606753  19.655646  20.512361  -150.830607  28.527303  -93.848124  -24.363067  29.576468  87.541204  52.108803  -6.733565  10.428571  -3.970793  -22.308943  26.179114  115.073573  60.57064  47.571835  -24.508258  -26.899352  -108.334496  57.951908  -4.170827  -11.46367  -7.474777  -1.805202  8.063639  -5.582952  -1.453088  6.026219  
0.0  93.25843  0.0  -2.354125  -0.642947  -93.675614  11.179355  -17.049718  3.429429  -5.163796  -0.905813  7.599928  8.796374  2.393079  3.22472  -11.750501  3.171089  -3.886663  -5.542077  9.083406  10.995986  4.873708  2.207932  0.070445  1.695256  0.306024  -0.702404  4.624729  0.885151  -1.897526  4.624729  0.885151  -1.897526  -32.372631  19.981022  20.490959  -150.766655  28.220565  -93.988581  -23.797583  29.212643  88.092351  51.983252  -6.489905  9.922974  -4.112109  -21.96527  26.287396  114.680785  60.369967  47.055417  -23.927069  -27.268269  -108.612565  58.185317  -4.234942  -11.468417  -7.43978  -1.701792  8.007466  -5.558258  -1.374349  5.985494  
0.0  93.25843  0.0  -2.567974  0.175305  -93.643863  10.591157  -17.394844  2.742795  -5.604894  -0.627361  8.129118  9.100638  2.465935  3.444914  -12.154178  2.957862  -3.889366  -5.935953  9.181629  11.207807  4.774572  2.256839  0.029907  1.555491  0.248527  -0.678744  4.244574  0.72258  -1.838484  4.244574  0.72258  -1.838484  -32.210196  20.274613  20.321025  -150.842536  27.975863  -94.185218  -23.185354  28.51244  88.65836  51.989162  -6.194133  9.515341  -4.2356  -21.607912  26.325147  114.305203  60.204956  46.563362  -23.009017  -27.768699  -109.116545  58.798565  -4.151206  -11.247565  -7.510197  -1.581446  7.885668  -5.612993  -1.283479  5.895499  
0.0  93.25843  0.0  -2.75133  1.05139  -93.631794  10.265493  -17.753339  2.146556  -5.948445  -0.232349  8.86291  9.118342  2.461375  3.405723  -12.511209  2.787387  -3.84911  -6.113356  9.290905  11.451816  4.867731  2.213581  0.061698  1.399389  0.204663  -0.648811  3.819377  0.596697  -1.76098  3.819377  0.596697  -1.76098  -32.043955  20.596025  20.208002  -150.793565  27.780631  -94.306163  -22.425758  27.761946  89.251175  52.279573  -5.893782  9.093862  -4.383695  -21.241969  26.308221  113.770468  60.105383  45.954389  -22.307518  -28.058881  -109.587056  59.157119  -4.169827  -11.277134  -7.520698  -1.531386  7.794118  -5.621742  -1.244924  5.827443  
0.0  93.25843  0.0  -2.955201  1.942872  -93.621534  9.254081  -18.192381  1.114346  -5.795822  0.301912  10.103804  9.213321  2.480354  3.472446  -12.922967  2.592364  -3.864095  -6.397678  9.338893  11.700765  5.08097  2.254046  0.120195  1.239111  0.155081  -0.617998  3.382817  0.455396  -1.680806  3.382817  0.455396  -1.680807  -31.947511  20.844642  20.023655  -150.716438  27.556583  -94.535669  -21.618269  27.046906  89.841233  52.765096  -5.5826  8.673538  -4.504902  -20.862729  26.259194  113.210608  59.891723  45.257766  -20.987628  -28.49002  -110.352735  59.984492  -3.918086  -10.919745  -7.53851  -1.482732  7.696797  -5.635954  -1.207441  5.755026  
0.0  93.25843  0.0  -3.211492  2.805673  -93.616298  9.044487  -18.687442  0.353101  -6.061687  0.83346  11.109148  9.164402  2.458413  3.410657  -13.103735  2.376615  -3.858847  -6.515294  9.381829  12.046026  5.077923  2.24432  0.187501  1.07632  0.095964  -0.583254  2.939518  0.288184  -1.589643  2.939518  0.288184  -1.589644  -31.756745  21.128157  19.804709  -150.659275  27.409209  -94.721901  -20.782913  26.363078  90.373245  53.330422  -5.257054  8.204851  -4.64774  -20.442243  26.086971  112.423516  59.741156  44.487719  -20.113843  -28.537207  -111.039842  60.181909  -4.000089  -10.939515  -7.541109  -1.450966  7.57678  -5.63857  -1.182153  5.665402  
0.0  93.25843  0.0  -3.460396  3.697281  -93.596078  8.079195  -19.101907  -0.852782  -5.968601  1.393463  12.542731  9.235582  2.489572  3.475499  -13.357528  2.119084  -3.95512  -6.984348  9.480291  12.351148  5.243856  2.258189  0.285068  0.905072  0.038774  -0.547165  2.472903  0.126434  -1.493931  2.472903  0.126434  -1.493931  -31.527309  21.361663  19.622388  -150.709718  27.384558  -94.841192  -20.233757  25.848883  90.764576  54.152629  -4.84965  7.769332  -4.798172  -20.05992  25.863442  111.725082  59.38053  43.820847  -18.93176  -28.433419  -111.805234  59.547265  -4.830747  -11.45651  -7.531842  -1.429782  7.426783  -5.632201  -1.164285  5.553179  
